HIERARCHY
ROOT pelvis
{
OFFSET 0 0 0
CHANNELS 6 Xposition Yposition Zposition Xrotation Yrotation Zrotation
JOINT lfemur
{
OFFSET 0 104.741 0
CHANNELS 3 Xrotation Yrotation Zrotation
JOINT ltibia
{
OFFSET 0 0 -417.27
CHANNELS 3 Xrotation Yrotation Zrotation
JOINT lfoot
{
OFFSET 0 0 -429.744
CHANNELS 3 Xrotation Yrotation Zrotation
JOINT ltoes
{
OFFSET 122.101 0 0
CHANNELS 3 Xrotation Yrotation Zrotation
JOINT ltoe_EF
{
OFFSET 52.435 0 0
CHANNELS 3 Xrotation Yrotation Zrotation
End Site
{
OFFSET 52.435 0 0
}
}
}
}
}
}
JOINT rfemur
{
OFFSET 0 -104.741 0
CHANNELS 3 Xrotation Yrotation Zrotation
JOINT rtibia
{
OFFSET 0 0 -417.27
CHANNELS 3 Xrotation Yrotation Zrotation
JOINT rfoot
{
OFFSET 0 0 -420.802
CHANNELS 3 Xrotation Yrotation Zrotation
JOINT rtoes
{
OFFSET 145.971 0 0
CHANNELS 3 Xrotation Yrotation Zrotation
JOINT rtoe_EF
{
OFFSET 20.2604 0 0
CHANNELS 3 Xrotation Yrotation Zrotation
End Site
{
OFFSET 20.2604 0 0
}
}
}
}
}
}
JOINT thorax
{
OFFSET 0 0 192.451
CHANNELS 3 Xrotation Yrotation Zrotation
JOINT lclavicle
{
OFFSET 61.9711 0 353.504
CHANNELS 3 Xrotation Yrotation Zrotation
JOINT lhumerus
{
OFFSET -61.9711 177.235 27.1679
CHANNELS 3 Xrotation Yrotation Zrotation
JOINT lradius
{
OFFSET 0 0 -288.663
CHANNELS 3 Xrotation Yrotation Zrotation
JOINT lhand
{
OFFSET 0 0 -248.805
CHANNELS 3 Xrotation Yrotation Zrotation
End Site
{
OFFSET 0 0 -248.805
}
}
}
}
}
JOINT rclavicle
{
OFFSET 61.9711 0 353.504
CHANNELS 3 Xrotation Yrotation Zrotation
JOINT rhumerus
{
OFFSET -61.9711 -177.235 27.1679
CHANNELS 3 Xrotation Yrotation Zrotation
JOINT rradius
{
OFFSET 0 0 -288.663
CHANNELS 3 Xrotation Yrotation Zrotation
JOINT rhand
{
OFFSET 0 0 -248.805
CHANNELS 3 Xrotation Yrotation Zrotation
End Site
{
OFFSET 0 0 -248.805
}
}
}
}
}
JOINT Neck_Root
{
OFFSET 0 0 348.975
CHANNELS 3 Xrotation Yrotation Zrotation
JOINT head
{
OFFSET 34.2596 -9.05976 100.79
CHANNELS 3 Xrotation Yrotation Zrotation
End Site
{
OFFSET 34.2596 -9.05976 100.79
}
}
}
}
}
MOTION
Frames: 8
Frame Time: 0.00833333
-76.469536 241.561569 952.355347 -1.066750 6.281908 2.659098 2.069919 -1.224608 24.590050 -0.000000 -4.251154 -0.000003 -2.752305 20.345456 -1.625529 -0.000000 -7.243033 0.000003 0.000000 0.000000 0.000000 -0.823828 -1.737941 -27.557196 0.000000 -4.537430 0.000001 -3.174177 25.032191 -1.535180 -0.000001 -3.938765 -0.000003 0.000000 0.000000 0.000000 -1.046613 -6.991085 3.896975 -10.845900 -0.000000 0.207016 88.723963 -3.529631 4.770576 179.999968 -87.464342 175.681512 5.623776 10.283936 -0.000004 14.314812 -0.000000 -2.310731 -94.700161 0.827602 -7.607504 179.999853 -87.989016 -157.454284 -6.719993 3.801050 -0.000004 0.000000 0.000000 0.000000 -0.590102 3.098097 -5.717345 
-76.488274 241.563019 952.354492 -1.058151 6.251120 2.662373 2.062743 -1.197524 24.578235 -0.000001 -4.245620 -0.000002 -2.738403 20.363239 -1.616207 -0.000000 -7.255906 0.000000 0.000000 0.000000 0.000000 -0.831648 -1.706563 -27.559613 0.000000 -4.538212 -0.000000 -3.173993 25.028453 -1.535368 -0.000001 -3.958724 -0.000001 0.000000 0.000000 0.000000 -1.099295 -6.961082 3.899857 -10.349548 0.000000 0.409572 87.967853 -3.913278 4.755020 -179.999885 -87.688215 175.378562 5.665034 10.157546 -0.000006 14.353742 -0.000000 -2.218158 -94.717125 0.967870 -7.623199 -179.999812 -88.017513 -157.536178 -6.702527 3.651032 0.000011 0.000000 0.000000 -0.000000 -0.450138 3.148073 -5.734770 
-76.472694 241.558395 952.369141 -1.061163 6.257081 2.664732 2.065985 -1.201799 24.572094 0.000000 -4.246220 0.000001 -2.737173 20.354424 -1.616024 0.000000 -7.285571 0.000000 0.000000 0.000000 0.000000 -0.827929 -1.709149 -27.564302 0.000001 -4.541883 0.000002 -3.172665 25.023538 -1.535086 -0.000001 -3.949723 -0.000003 0.000000 0.000000 0.000000 -1.094463 -6.963485 3.904285 -10.353624 -0.000000 0.408134 87.965234 -3.915210 4.764872 179.999910 -87.692352 175.384426 5.659114 10.146876 0.000003 14.351804 0.000000 -2.221369 -94.726946 0.968979 -7.637923 179.999814 -88.019914 -157.535573 -6.692826 3.658253 0.000002 0.000000 0.000000 0.000000 -0.454090 3.156921 -5.751740 
-76.445999 241.572662 952.363892 -1.058843 6.256990 2.665261 2.061949 -1.200066 24.582114 -0.000000 -4.246101 -0.000002 -2.743675 20.355111 -1.619826 -0.000001 -7.258238 0.000003 0.000000 0.000000 0.000000 -0.831195 -1.704994 -27.560832 0.000000 -4.543130 -0.000001 -3.169649 25.023424 -1.533627 -0.000001 -3.943508 -0.000001 0.000000 0.000000 0.000000 -1.096195 -6.960615 3.901153 -10.355682 0.000000 0.407835 87.963302 -3.909904 4.772508 179.999984 -87.695669 175.374154 5.686497 10.152131 0.000004 14.347105 -0.000000 -2.220748 -94.734805 0.959932 -7.643718 -179.999938 -88.027466 -157.530714 -6.688018 3.662014 0.000012 0.000000 0.000000 0.000000 -0.453653 3.170776 -5.757346 
-76.429626 241.584549 952.356018 -1.054049 6.262814 2.661111 2.059700 -1.204640 24.573871 -0.000000 -4.244111 0.000001 -2.741758 20.357453 -1.618542 0.000000 -7.261677 -0.000006 0.000000 0.000000 0.000000 -0.835555 -1.711652 -27.560887 -0.000000 -4.540674 -0.000001 -3.172029 25.023976 -1.534751 -0.000001 -3.952465 0.000002 0.000000 0.000000 0.000000 -1.101545 -6.964330 3.900819 -10.359969 0.000000 0.402661 87.967563 -3.890174 4.782293 -179.999704 -87.685863 175.388706 5.675077 10.156173 -0.000002 14.351523 -0.000000 -2.220922 -94.756404 0.947628 -7.644634 -179.999574 -88.040043 -157.515574 -6.699046 3.667877 0.000003 0.000000 0.000000 0.000000 -0.454525 3.186975 -5.764440 
-76.415497 241.588791 952.352417 -1.053783 6.270229 2.661645 2.058409 -1.211408 24.577725 -0.000001 -4.245096 -0.000004 -2.747359 20.355978 -1.621952 -0.000000 -7.247645 0.000001 0.000000 0.000000 0.000000 -0.835512 -1.716172 -27.565384 -0.000000 -4.547047 -0.000003 -3.166203 25.025827 -1.531780 0.000000 -3.935555 -0.000002 0.000000 0.000000 0.000000 -1.100901 -6.971468 3.901474 -10.361915 0.000000 0.398701 87.963539 -3.884227 4.790658 179.999915 -87.687368 175.385349 5.680343 10.149028 -0.000002 14.348329 -0.000000 -2.222308 -94.766691 0.940224 -7.645923 -179.999965 -88.043040 -157.510628 -6.706696 3.676648 -0.000002 0.000000 0.000000 0.000000 -0.458559 3.203381 -5.777929 
-76.371117 241.587402 952.352539 -1.053570 6.268247 2.662539 2.057260 -1.206125 24.570646 -0.000000 -4.247034 -0.000000 -2.735688 20.353906 -1.615174 0.000000 -7.252109 -0.000003 0.000000 0.000000 0.000000 -0.834999 -1.709667 -27.564698 -0.000000 -4.551049 -0.000003 -3.166312 25.021991 -1.532113 -0.000001 -3.952083 -0.000001 0.000000 0.000000 0.000000 -1.099712 -6.969568 3.903438 -10.357864 0.000000 0.396642 87.938247 -3.887770 4.812203 179.999977 -87.694053 175.370552 5.672057 10.132763 0.000003 14.341207 -0.000000 -2.220644 -94.771157 0.940736 -7.653183 -179.999526 -88.045289 -157.510687 -6.696911 3.661177 -0.000000 0.000000 0.000000 0.000000 -0.460968 3.230878 -5.784132 
-76.351753 241.586502 952.355469 -1.053530 6.270840 2.659715 2.057748 -1.207615 24.570709 0.000001 -4.245673 0.000003 -2.732642 20.357320 -1.613165 0.000001 -7.269771 -0.000004 0.000000 0.000000 0.000000 -0.834707 -1.710568 -27.565759 0.000000 -4.552893 -0.000002 -3.159353 25.022752 -1.528686 0.000000 -3.940138 -0.000000 0.000000 0.000000 0.000000 -1.099333 -6.969331 3.907046 -10.359904 -0.000000 0.399232 87.929943 -3.891855 4.828747 -179.999926 -87.694062 175.370880 5.657403 10.142244 0.000003 14.335384 0.000000 -2.219239 -94.772735 0.935661 -7.661943 179.999880 -88.050077 -157.505158 -6.703467 3.655964 0.000026 0.000000 0.000000 0.000000 -0.460247 3.243594 -5.792394 
